inDegrees=no
num_controls=7
num_derivatives=13
num_iterations=123
num_multipliers=7
num_parameters=0
num_slacks=7
num_states=26
objective=5.559597
objective_accelerations=0.284103
objective_balance=0.015448
objective_effort=0.377272
objective_height=4.838601
objective_ligament=0.044174
solver_duration=1049.599751
status=Solve_Succeeded
success=true
DataType=double
version=3
OpenSimVersion=4.4-2022-07-23-0e9fedc
endheader
time	/jointset/ground_pelvis/pelvis_tilt/value	/jointset/ground_pelvis/pelvis_tx/value	/jointset/ground_pelvis/pelvis_ty/value	/jointset/hip_r/hip_flexion_r/value	/jointset/hip_r/hip_adduction_r/value	/jointset/hip_r/hip_rotation_r/value	/jointset/back/lumbar_extension/value	/jointset/patellofemoral_r/patellar_flexion_r/value	/jointset/knee_r/knee_flexion_r/value	/jointset/knee_r/knee_adduction_r/value	/jointset/knee_r/knee_rotation_r/value	/jointset/ankle_r/ankle_angle_r/value	/jointset/subtalar_r/subtalar_angle_r/value	/jointset/ground_pelvis/pelvis_tilt/speed	/jointset/ground_pelvis/pelvis_tx/speed	/jointset/ground_pelvis/pelvis_ty/speed	/jointset/hip_r/hip_flexion_r/speed	/jointset/hip_r/hip_adduction_r/speed	/jointset/hip_r/hip_rotation_r/speed	/jointset/back/lumbar_extension/speed	/jointset/patellofemoral_r/patellar_flexion_r/speed	/jointset/knee_r/knee_flexion_r/speed	/jointset/knee_r/knee_adduction_r/speed	/jointset/knee_r/knee_rotation_r/speed	/jointset/ankle_r/ankle_angle_r/speed	/jointset/subtalar_r/subtalar_angle_r/speed	/forceset/tau_hip_flexion_r	/forceset/tau_hip_adduction_r	/forceset/tau_hip_rotation_r	/forceset/tau_knee_flexion_r	/forceset/tau_ankle_angle_r	/forceset/tau_subtalar_angle_r	/forceset/tau_lumbar_extension	lambda_cid13_p0	lambda_cid14_p0	lambda_cid14_p1	lambda_cid14_p2	lambda_cid14_p3	lambda_cid14_p4	lambda_cid14_p5	/jointset/ground_pelvis/pelvis_tilt/accel	/jointset/ground_pelvis/pelvis_tx/accel	/jointset/ground_pelvis/pelvis_ty/accel	/jointset/hip_r/hip_flexion_r/accel	/jointset/hip_r/hip_adduction_r/accel	/jointset/hip_r/hip_rotation_r/accel	/jointset/back/lumbar_extension/accel	/jointset/patellofemoral_r/patellar_flexion_r/accel	/jointset/knee_r/knee_flexion_r/accel	/jointset/knee_r/knee_adduction_r/accel	/jointset/knee_r/knee_rotation_r/accel	/jointset/ankle_r/ankle_angle_r/accel	/jointset/subtalar_r/subtalar_angle_r/accel	gamma_cid13_p0	gamma_cid14_p0	gamma_cid14_p1	gamma_cid14_p2	gamma_cid14_p3	gamma_cid14_p4	gamma_cid14_p5
1	-0.07526942658162415	0.06922315274728308	0.8034551663788021	0.8360597291919749	-0.2331264687838309	-0.1015294386235515	-0.4361517515784504	1.002634722539343	1.002634722539386	-0.01901108814866711	0.174528734458734	0.4317938404566241	0.1081645110638988	-0.002823272248489533	0.006435894006122199	0.01241755732753411	-0.03764575826921324	0.002822029343276878	-0.01215200067328229	0.01575396066185993	-0.05127448640608206	-0.05127448640608187	-0.0006930135586700665	-4.201052652678388e-05	-0.01194794245137897	0.0003522181416954583	-0.1268494739239216	0.01857590139821787	0.01438710470829177	-0.4249639030726855	-0.0570740461424362	0.006180635030837225	0.1974731892037789	-11.95997310508352	-64.63013770148937	-7.294231255479565	0.09479275829159106	21.36539892249223	-757.234493347432	61.60031099441338	0.399962209298418	-0.04729472996742777	0.9667453731537161	-2.834200104679392	0.1123340284585343	-0.4117734708276382	0.7165144618816988	-3.99613409006399	-3.996134090063972	0.6155762776540988	-0.005143634919862192	-1.758641338146268	-0.4946287330814876	1.209916313007044e-09	-1.94564712750914e-09	-5.370327877605186e-09	1.001488811691806e-08	5.770335557676297e-09	-4.078183256145058e-09	-7.763289440575182e-09
1.01	-0.0752784050766296	0.06928530686432251	0.8036275232461692	0.8355423617651666	-0.2330928386507013	-0.1016712815473971	-0.4359568016638576	1.001922533635918	1.001922533635951	-0.0189867320276397	0.1745282840688917	0.4315866695043332	0.1081430399192216	0.00100186672696841	0.006011785371772695	0.02204978020467494	-0.06582134792083601	0.003901993130728187	-0.01621892448396603	0.02333999107386883	-0.09116251139702719	-0.09116251139702895	0.005565683557763987	-4.690108638670735e-05	-0.02946565735117739	-0.004640646329777023	-0.1272604970845899	0.01855782342583074	0.01437699774530047	-0.4244600323791175	-0.05723521654828036	0.006215194132814322	0.1979141181333189	-12.00723803405882	-64.67411088784142	-7.272229775648039	0.07450345075729965	21.1974339132907	-757.3123915226872	61.60278468342727	0.3699343486129207	-0.03743937827452216	0.9608542996915045	-2.808281102870655	0.1055297919332634	-0.4045003907213002	0.7952426533676497	-3.985019688109881	-3.985019688110178	0.6312324772172047	0.002016103833238013	-1.745248123019737	-0.5007444772848963	2.074880037224012e-09	-1.22175127897915e-09	-1.002537760588743e-08	1.869121501652608e-08	5.782437362318298e-09	-5.258637895745391e-09	-1.433801757376303e-08
1.02	-0.0752499032604888	0.06934372580539705	0.8038960810532467	0.8347434299003629	-0.2330484684320748	-0.1018538634202638	-0.4356828723806391	1.00081148788569	1.000811487885695	-0.0188997457257097	0.1745278203475202	0.4312049390916183	0.1080718142952111	0.004672789980171053	0.005688858813141282	0.03165774526962632	-0.0939586458711402	0.004970046439951248	-0.02029979047594502	0.03154983438616773	-0.1310458557679762	-0.1310458557679799	0.01183302261735225	-4.467683215269541e-05	-0.04685983453590118	-0.009598677725439677	-0.1276715202451862	0.0185397454534869	0.01436689078215524	-0.4239561616855455	-0.05739638695411319	0.006249753234872395	0.1983550470629211	-12.08109458930212	-64.72897870526117	-7.246098190403037	0.04665930415957374	21.05272390564073	-757.5636945418447	61.63610671786584	0.3691190648474116	-0.02705831482385222	0.9618938107158226	-2.82654176441566	0.1099519328128818	-0.4145619070866938	0.8412770419396967	-3.995197966064746	-3.995197966064732	0.6173046662849404	-0.003720672101050941	-1.733933795131393	-0.4876621179195513	2.876150113823142e-09	-9.88030087769123e-10	-1.518125833538855e-08	2.64678850310293e-08	6.544184193902821e-09	-6.847689274606849e-09	-2.138924476020317e-08
1.03	-0.07518544491610733	0.06939942381865849	0.8042605507019184	0.8336633593584033	-0.2329934876429142	-0.1020773187862656	-0.4353237705020603	0.9993017159997409	0.99930171599977	-0.01875004615354717	0.1745274038051503	0.4306499092071547	0.1079511929030332	0.008193821253317973	0.005467974815211532	0.0412273476834607	-0.1220435537292192	0.006022761170479488	-0.02439228374801724	0.04037191812318778	-0.1708991336530049	-0.1708991336530066	0.01810926565034387	-3.837807746295322e-05	-0.06412308594317746	-0.01451935894085235	-0.1279089821795513	0.01846826314069483	0.01435692525678567	-0.4232334133456583	-0.05734529823482521	0.006228604405754544	0.1986236610894463	-12.18152602706025	-64.6967751987259	-7.231111130662041	0.02310031377129861	20.86304168800198	-757.4452024158435	61.61122744399792	0.3398373030140262	-0.01701732862490736	0.9531662416784993	-2.797678431836748	0.102433835281581	-0.406738492437789	0.9178805585792555	-3.978985274627792	-3.978985274627486	0.6331384678908218	0.002848422668644786	-1.719062326782051	-0.493333897891282	3.676770255242499e-09	-7.593106787766492e-10	-2.034224958531028e-08	3.423537487323552e-08	7.313580464537782e-09	-8.440910007950566e-09	-2.844533418188058e-08
